<svg xmlns="http://www.w3.org/2000/svg" width="90" height="90" id="one-click"><defs><linearGradient id="a" x2="1" y1=".5" y2=".5" gradientUnits="objectBoundingBox"><stop offset="0" stop-color="#ee0a79"></stop><stop offset="1" stop-color="#ff6900"></stop></linearGradient></defs><g transform="translate(-805 -796)"><circle cx="45" cy="45" r="45" fill="url(#a)" transform="translate(805 796)"></circle><g fill="none" stroke="#fff" stroke-linecap="square" stroke-miterlimit="10" stroke-width="2"><path d="M841.578 839.214v5.071"></path><path d="m860.531 837.288-13.543-2.316v-8.229a2.745 2.745 0 0 0-2.747-2.743h0a2.745 2.745 0 0 0-2.747 2.743v12.932h-2.355a3.137 3.137 0 0 0-3.139 3.134v4.539a9.394 9.394 0 0 0 2.064 5.876l3.43 5.26H861.9l2.443-15.854a4.7 4.7 0 0 0-3.812-5.342ZM849.692 844.285v8.114M855.778 844.285v8.114"></path></g></g></svg>